<?xml version="1.0" encoding="utf-8"?>
<!-- Svg Vector Icons : http://www.onlinewebfonts.com/icon -->
<!DOCTYPE svg PUBLIC "-//W3C//DTD SVG 1.1//EN" "http://www.w3.org/Graphics/SVG/1.1/DTD/svg11.dtd">
<svg version="1.1" xmlns="http://www.w3.org/2000/svg" xmlns:xlink="http://www.w3.org/1999/xlink" x="0px" y="0px" viewBox="0 0 1000 1000" enable-background="new 0 0 1000 1000" xml:space="preserve">
<metadata> Svg Vector Icons : http://www.onlinewebfonts.com/icon </metadata>
<g><g transform="translate(0.000000,511.000000) scale(0.100000,-0.100000)"><path d="M3835.6,4839.6c-46.5-95.5-82.6-175.6-77.5-178.2c5.2-2.6,95.5-51.6,201.4-103.3l193.7-98.1l-258.2-56.8c-1544.2-346-2791.4-1474.5-3276.9-2964.5C447.6,922.3,408.9,653.7,411.5,13.3c0-488.1,7.7-606.8,59.4-839.2c185.9-865.1,573.3-1608.7,1151.7-2215.6c715.3-751.4,1559.7-1185.3,2652-1360.9c108.4-18.1,108.4-18.1,134.3,247.9l15.5,147.2l-149.8,18.1c-604.3,74.9-1309.2,369.3-1859.2,774.7C961.5-2137.8,403.7-144.2,1082.9,1542c436.4,1084.6,1327.3,1944.4,2411.9,2326.6c237.6,82.6,717.9,201.4,738.5,180.8c5.2-7.7-43.9-74.9-111-149.8l-121.4-136.9l136.9-124c74.9-69.7,144.6-126.5,157.5-126.5c12.9,0,204,201.4,423.5,446.7c364.1,402.8,397.7,446.7,356.4,477.7c-56.8,43.9-1105.2,573.3-1133.6,573.3C3928.5,5010,3882.1,4932.5,3835.6,4839.6z"/><path d="M5601.9,4565.8c-7.8-33.6-18.1-123.9-25.8-204l-15.5-147.2l149.8-18.1c260.8-31,715.3-160.1,1001.9-281.5C8871,2998.4,9803.2,465.2,8760-1639.4c-539.7-1089.7-1546.8-1879.9-2742.4-2156.2c-139.4-31-258.2-51.7-266-46.5c-5.2,7.7,43.9,74.9,111,149.8l121.4,136.9l-136.8,124c-74.9,69.7-144.6,126.5-157.5,126.5c-12.9,0-204-201.4-423.5-444.2c-340.9-379.6-395.1-451.9-361.5-477.7c100.7-74.9,1123.3-575.9,1146.5-562.9c28.4,18.1,188.5,322.8,175.6,335.7c-5.1,2.6-95.5,51.7-201.4,103.3l-193.7,98.1l258.2,59.4C7644.4-3839.5,8878.8-2723.9,9372-1223.6c242.7,743.7,284,1634.6,111.1,2386c-124,542.3-402.9,1164.6-712.7,1598.4c-661.1,921.9-1686.2,1588.1-2757.9,1792.1C5601.9,4633,5614.8,4630.4,5601.9,4565.8z"/><path d="M4643.8,2453.5c-330.5-51.6-712.7-204-994.2-395.1c-170.4-116.2-454.5-395.1-583.6-575.9c-149.8-209.2-307.3-544.9-374.4-797.9c-80-297-80-867.6,0-1162c67.1-253.1,224.7-591.3,374.4-797.9c129.1-180.8,413.2-459.6,583.6-575.8c697.2-472.6,1593.3-544.9,2344.7-188.5c273.7,129.1,415.8,227.2,635.3,436.4c852.2,818.6,973.5,2122.6,286.6,3088.4c-126.5,178.2-410.6,457.1-586.2,578.4c-191.1,129.1-529.4,281.5-756.6,338.3C5333.3,2463.9,4873.7,2489.7,4643.8,2453.5z M5121.6,1875.1c0-82.6,5.2-87.8,108.5-103.3c333.1-54.2,606.8-315,676.6-650.7l18.1-82.6l-149.8-15.5c-82.6-10.3-170.4-23.2-193.7-31c-33.6-10.3-49.1,7.8-62,59.4c-25.8,103.3-100.7,245.3-157.5,297c-25.8,25.8-90.4,62-144.6,85.2l-95.5,38.7V945.5V416.1l214.3-64.6c361.5-113.6,544.9-291.8,627.5-606.8c92.9-369.3-51.7-759.2-361.5-968.4c-121.4-82.6-209.2-116.2-408-157.5c-69.7-12.9-72.3-18.1-72.3-193.7v-180.8h-116.2h-116.2v180.8c0,175.6-2.6,180.7-69.7,193.7c-498.4,100.7-735.9,335.7-818.6,805.7c-12.9,72.3-5.2,87.8,43.9,98.1c157.5,36.2,291.8,64.6,307.3,64.6c7.7,0,28.4-59.4,43.9-129.1c51.6-240.2,152.3-384.8,330.5-475.2c167.9-85.2,162.7-100.7,162.7,534.5V93.3L4742,139.8c-454.5,142-679.1,408-679.1,803.1c0,237.6,59.4,400.3,198.8,557.8c136.9,149.8,315,245.3,506.1,271.1c118.8,15.5,121.4,20.7,121.4,103.3c0,87.8,2.6,87.8,116.2,87.8C5119,1962.9,5121.6,1962.9,5121.6,1875.1z"/><path d="M4713.6,1418c-294.4-147.2-371.9-547.4-152.4-772.1c67.1-67.1,263.4-180.8,317.6-180.8c5.2,0,10.3,227.2,10.3,503.5c0,384.8-7.7,503.5-31,503.5C4840.1,1472.3,4775.5,1446.5,4713.6,1418z"/><path d="M5121.6-503.2c0-612-5.2-599.1,162.7-513.9c209.2,105.9,312.5,278.9,312.5,526.8c0,260.8-80.1,371.9-356.3,490.6l-118.8,49.1V-503.2z"/></g></g>
</svg>